<?xml version="1.0" encoding="UTF-8" standalone="no"?>
<!DOCTYPE svg PUBLIC "-//W3C//DTD SVG 1.1//EN" "http://www.w3.org/Graphics/SVG/1.1/DTD/svg11.dtd">
<!-- Created with Vectornator (http://vectornator.io/) -->
<svg height="100%" stroke-miterlimit="10"
  style="fill-rule:nonzero;clip-rule:evenodd;stroke-linecap:round;stroke-linejoin:round;"
  version="1.1" viewBox="0 0 2388 1668" width="100%" xml:space="preserve"
  xmlns="http://www.w3.org/2000/svg" xmlns:vectornator="http://vectornator.io"
  xmlns:xlink="http://www.w3.org/1999/xlink">
<defs/>

<path d="M557.749 270.795C558.04 272.539 556.122 266.722 554.354 266.722C546.194 266.722 557.954 283.318 555.712 291.165C553.407 299.233 546.571 308.634 542.133 315.608C523.436 344.989 503.848 375.724 483.741 403.875C445.181 457.858 404.532 510.816 366.957 565.471C363.361 570.702 328.923 618.396 330.292 622.505C330.915 624.373 336.434 623.992 337.082 623.863C355.33 620.213 379.505 594.484 392.758 583.124C408.695 569.464 427.7 555.568 447.076 547.817C448.224 547.358 452.508 545.314 452.508 543.744C452.508 538.932 446.405 551.205 443.002 554.607C434.198 563.412 443.854 553.097 434.855 565.471C422.263 582.785 409.121 598.49 398.19 617.073C366.348 671.204 337.916 725.399 309.923 781.385C305.783 789.664 303.3 800.752 301.775 809.902C301.578 811.088 296.995 826.197 297.702 826.197C308.617 826.197 324.957 797.369 330.292 790.891C350.364 766.518 373.165 743.944 395.474 721.635C405.386 711.723 416.088 703.325 426.707 694.476C431.722 690.297 443.002 677.084 443.002 683.612C443.002 685.359 433.413 693.923 432.139 695.834C423.474 708.832 416.489 721.233 411.769 736.573C394.707 792.027 382.482 850.482 372.389 907.674C367.321 936.39 365.599 964.09 365.599 993.225C365.599 1005.09 366.166 1016.98 364.241 1028.53C363.869 1030.76 364.241 1035.32 364.241 1035.32C364.241 1035.32 369.279 1014.6 371.031 1004.09C373.833 987.276 377.837 970.719 380.537 953.845C389.136 900.098 402.983 846.061 436.213 801.754C447.227 787.069 456.758 771.133 466.088 755.584C469.062 750.626 472.159 746.583 475.593 742.004C476.808 740.385 478.309 734.548 478.309 736.573C478.309 802.301 497.127 874.122 502.752 941.623C503.512 950.747 498.005 996.283 508.184 1001.37C509.42 1001.99 509.542 982.009 509.542 981.004C509.542 974.667 509.542 968.329 509.542 961.992C509.542 942.473 511.373 923.076 512.258 903.6C514.124 862.554 509.543 818.039 514.974 777.311C518.205 753.074 527.162 730.378 532.627 706.698C536.523 689.817 539.938 647.157 562.502 641.516C586.582 635.496 613.429 677.165 630.4 689.044C652.567 704.562 680.098 705.746 703.729 717.561C712.404 721.899 723.681 738.369 734.962 733.857C762.508 722.838 737.623 658.237 732.246 642.874C712.057 585.19 651.368 545.789 619.536 494.857C615.304 488.086 586.988 449.96 591.019 441.897C596.139 431.657 633.467 435.974 641.263 435.107C676.365 431.207 728.904 422.154 755.331 395.727C793.065 357.992 756.679 235.293 701.013 227.341C638.649 218.432 636.188 317.216 604.598 325.113C596.698 327.088 595.093 302.684 595.093 297.954C595.093 279.645 609.268 232.01 595.093 217.835C591.324 214.066 585.148 217.376 581.513 219.193C570.093 224.904 565.218 243.046 565.218 254.5C565.218 261.35 568.311 278.5 562.502 274.869C558.125 272.134 557.031 266.484 557.749 270.795Z" fill="none" opacity="1" stroke="#007aff" stroke-linecap="round" stroke-linejoin="round" stroke-width="10" name="Leaf1"/>
<path d="M1252.34 326.471C1231.4 316 1146.77 400.807 1132.84 414.738C1058.85 488.725 988.148 558.503 972.603 667.317C967.354 704.058 974.075 761.101 1006.55 785.459C1043.96 813.517 1097.81 751.352 1123.34 731.141C1217.03 656.965 1274.76 599.019 1297.15 475.846C1312.11 393.581 1277.48 287.251 1181.73 359.062" fill="none" opacity="1" stroke="#007aff" stroke-linecap="round" stroke-linejoin="round" stroke-width="10" name="Leaf2"/>
<path d="M1580.29 605.53C1556.85 619.511 1619.74 560.64 1624.42 555.965C1660.15 520.238 1696.17 485.758 1739.85 459.551C1836.13 401.779 1946.38 369.355 2053.53 418.812C2098.25 439.451 2139.78 465.072 2148.59 517.942C2152.03 538.578 2126.01 560.207 2105.13 553.249C2075.95 543.521 2050.5 513.472 2020.94 501.647C1976.46 483.856 1910.35 491.184 1870.21 517.942C1851.17 530.638 1847.99 548.662 1838.98 568.187C1822.59 603.698 1801.67 639.411 1783.3 674.107C1736.19 763.095 1616.33 879.038 1503.56 845.209C1405.51 815.793 1477.52 713.168 1511.71 661.885C1523.01 644.932 1539.77 630.16 1556.52 618.431C1563.04 613.87 1568.78 609.074 1575.53 604.851C1577.99 603.315 1583.62 596.827 1582.32 599.42C1579.96 604.141 1584.14 603.229 1580.29 605.53Z" fill="none" opacity="1" stroke="#007aff" stroke-linecap="round" stroke-linejoin="round" stroke-width="10" name="Leaf3"/>

</svg>